<?xml version="1.0" standalone="no"?>
<!DOCTYPE svg PUBLIC "-//W3C//DTD SVG 20010904//EN"
 "http://www.w3.org/TR/2001/REC-SVG-20010904/DTD/svg10.dtd">
<svg version="1.0" xmlns="http://www.w3.org/2000/svg"
 width="512.000000pt" height="512.000000pt" viewBox="0 0 512.000000 512.000000"
 preserveAspectRatio="xMidYMid meet">
<metadata>
Created by potrace 1.11, written by Peter Selinger 2001-2013
</metadata>
<g transform="translate(0.000000,512.000000) scale(0.100000,-0.100000)"
fill="#000000" stroke="none">
<path d="M310 3830 l0 -1291 -47 -67 c-25 -37 -70 -102 -100 -144 -115 -165
-163 -312 -158 -492 4 -164 44 -283 140 -416 82 -114 159 -175 370 -290 49
-27 456 -255 670 -375 28 -15 75 -41 105 -58 30 -16 80 -44 110 -62 30 -17 87
-49 125 -70 39 -21 86 -47 105 -58 167 -94 284 -158 560 -307 146 -78 289
-156 318 -172 l53 -29 207 112 c114 61 245 132 292 157 78 42 472 259 565 312
22 12 155 87 295 165 140 78 329 184 420 235 91 51 215 120 275 153 158 87
221 131 295 208 99 102 165 225 195 363 19 88 12 284 -13 361 -42 130 -58 157
-252 433 l-30 43 0 1289 c0 710 -3 1290 -7 1290 -5 0 -26 -5 -48 -10 -22 -6
-58 -13 -79 -16 -22 -4 -92 -22 -155 -40 -64 -19 -120 -36 -126 -37 -65 -19
-56 -16 -195 -78 -122 -54 -182 -88 -303 -167 -200 -132 -420 -351 -544 -542
-19 -30 -43 -66 -52 -80 -10 -14 -42 -73 -72 -132 l-54 -108 -615 0 -615 0
-49 98 c-26 53 -61 116 -77 140 -16 24 -29 45 -29 48 0 19 -187 253 -260 324
-57 56 -188 169 -239 205 -140 101 -321 202 -438 244 -32 12 -67 26 -78 31
-48 22 -232 73 -343 95 -42 9 -87 18 -99 20 l-23 5 0 -1290z"/>
</g>
</svg>
